<svg width="256" height="256" viewBox="0 0 256 256" fill="none" xmlns="http://www.w3.org/2000/svg">
<g clip-path="url(#clip0_1292_286)">
<path fill-rule="evenodd" clip-rule="evenodd" d="M65.4688 108.679C65.4688 93.3699 78.0501 80.9594 93.57 80.9594H160.816C168.269 80.9594 175.416 83.8799 180.686 89.0783C191.66 99.9035 191.66 117.455 180.686 128.28C175.416 133.478 168.269 136.399 160.816 136.399H124.748L132.577 128.676C139.893 121.459 139.893 109.759 132.577 102.542C125.26 95.325 113.399 95.325 106.082 102.542L53.0253 154.878L106.082 207.215C113.399 214.432 125.26 214.432 132.577 207.215C139.893 199.998 139.893 188.297 132.577 181.081L124.748 173.358H160.816C178.206 173.358 194.884 166.544 207.18 154.414C232.787 129.155 232.787 88.2028 207.18 62.944C194.884 50.8144 178.206 44 160.816 44H93.57C57.4083 44 28.0838 72.8756 28.0006 108.527C28.0002 108.578 28 108.628 28 108.679C28 118.885 36.3876 127.159 46.7342 127.159C57.0808 127.159 65.4683 118.885 65.4683 108.679L65.4688 108.679Z" fill="#FC531F"/>
</g>
<defs>
<clipPath id="clip0_1292_286">
<rect width="200" height="168.627" fill="white" transform="translate(28 44)"/>
</clipPath>
</defs>
</svg>
